<svg width="33" height="37" viewBox="0 0 33 37" fill="none" xmlns="http://www.w3.org/2000/svg">
<path d="M8.91211 12.722V11.2383C8.91211 6.32153 12.484 2.33574 16.8901 2.33574C21.2963 2.33574 24.8682 6.32153 24.8682 11.2383V12.722H27.5275C28.2619 12.722 28.8572 13.3863 28.8572 14.2058V32.0108C28.8572 32.8303 28.2619 33.4946 27.5275 33.4946H6.25277C5.51842 33.4946 4.9231 32.8303 4.9231 32.0108V14.2058C4.9231 13.3863 5.51842 12.722 6.25277 12.722H8.91211ZM26.1978 15.6895H7.58244V30.5271H26.1978V15.6895ZM15.5605 24.195C14.7656 23.6819 14.2308 22.723 14.2308 21.6245C14.2308 19.9856 15.4214 18.657 16.8901 18.657C18.3589 18.657 19.5495 19.9856 19.5495 21.6245C19.5495 22.723 19.0147 23.6819 18.2198 24.195V27.5596H15.5605V24.195ZM11.5714 12.722H22.2088V11.2383C22.2088 7.96044 19.8275 5.30325 16.8901 5.30325C13.9527 5.30325 11.5714 7.96044 11.5714 11.2383V12.722Z" fill="#1C1C1C"/>
</svg>
