<svg width="33" height="37" viewBox="0 0 33 37" fill="none" xmlns="http://www.w3.org/2000/svg">
<path d="M27.5275 33.6318H24.8682V30.6643C24.8682 28.2058 23.0823 26.213 20.8792 26.213H12.9012C10.6981 26.213 8.91215 28.2058 8.91215 30.6643V33.6318H6.25281V30.6643C6.25281 26.567 9.22938 23.2455 12.9012 23.2455H20.8792C24.5509 23.2455 27.5275 26.567 27.5275 30.6643V33.6318ZM16.8902 20.278C12.484 20.278 8.91215 16.2922 8.91215 11.3755C8.91215 6.45872 12.484 2.47292 16.8902 2.47292C21.2963 2.47292 24.8682 6.45872 24.8682 11.3755C24.8682 16.2922 21.2963 20.278 16.8902 20.278ZM16.8902 17.3105C19.8275 17.3105 22.2089 14.6533 22.2089 11.3755C22.2089 8.09763 19.8275 5.44043 16.8902 5.44043C13.9527 5.44043 11.5715 8.09763 11.5715 11.3755C11.5715 14.6533 13.9527 17.3105 16.8902 17.3105Z" fill="#1C1C1C"/>
</svg>
